<svg width="14" height="14" viewBox="0 0 50 50" fill="none" xmlns="http://www.w3.org/2000/svg">
<path d="M34.6154 21.1538C34.6154 17.4479 33.2983 14.2778 30.6641 11.6436C28.0298 9.00941 24.8598 7.69231 21.1538 7.69231C17.4479 7.69231 14.2778 9.00941 11.6436 11.6436C9.00941 14.2778 7.69231 17.4479 7.69231 21.1538C7.69231 24.8598 9.00941 28.0298 11.6436 30.6641C14.2778 33.2983 17.4479 34.6154 21.1538 34.6154C24.8598 34.6154 28.0298 33.2983 30.6641 30.6641C33.2983 28.0298 34.6154 24.8598 34.6154 21.1538ZM50 46.1538C50 47.1955 49.6194 48.097 48.8582 48.8582C48.097 49.6194 47.1955 50 46.1538 50C45.0721 50 44.1707 49.6194 43.4495 48.8582L33.143 38.5817C29.5573 41.0657 25.5609 42.3077 21.1538 42.3077C18.2893 42.3077 15.5499 41.7518 12.9357 40.64C10.3215 39.5282 8.06791 38.0258 6.17488 36.1328C4.28185 34.2398 2.77945 31.9862 1.66767 29.372C0.555889 26.7578 0 24.0184 0 21.1538C0 18.2893 0.555889 15.5499 1.66767 12.9357C2.77945 10.3215 4.28185 8.06791 6.17488 6.17488C8.06791 4.28185 10.3215 2.77945 12.9357 1.66767C15.5499 0.555889 18.2893 0 21.1538 0C24.0184 0 26.7578 0.555889 29.372 1.66767C31.9862 2.77945 34.2398 4.28185 36.1328 6.17488C38.0258 8.06791 39.5282 10.3215 40.64 12.9357C41.7518 15.5499 42.3077 18.2893 42.3077 21.1538C42.3077 25.5609 41.0657 29.5573 38.5817 33.143L48.8882 43.4495C49.6294 44.1907 50 45.0921 50 46.1538Z" fill="#A3A3A3"/>
</svg>
